<svg width="32" height="32" viewBox="0 0 32 32" fill="none" xmlns="http://www.w3.org/2000/svg">
<path d="M17.92 0.00800058C30.784 0.147208 32 1.9985 32 15.9992L31.9904 17.9193C31.8512 30.7839 30 32 16 32L14.08 31.9904C1.8272 31.8576 0.1424 30.1727 0.00960007 17.9177L0 15.5048L0.00960007 14.0807C0.1456 1.52007 1.9136 0.0640032 15.0208 0L17.9184 0.00800058H17.92Z" fill="#335CFF"/>
<path d="M20.568 12.8917C20.4049 12.3658 20.1856 11.8948 19.9101 11.4786C19.6401 11.0567 19.3168 10.6984 18.94 10.4037C18.5632 10.1031 18.133 9.87484 17.6494 9.71879C17.1714 9.56275 16.6456 9.48472 16.072 9.48472C15.0992 9.48472 14.2219 9.74191 13.4402 10.2563C12.6586 10.7707 12.04 11.5249 11.5845 12.5189C11.1346 13.5072 10.9097 14.718 10.9097 16.1513C10.9097 17.5904 11.1374 18.807 11.5929 19.8011C12.0484 20.7951 12.6726 21.5494 13.4656 22.0637C14.2585 22.5781 15.161 22.8353 16.1733 22.8353C17.1124 22.8353 17.9306 22.6388 18.6279 22.2458C19.3308 21.8528 19.8735 21.298 20.2559 20.5813C20.6439 19.8589 20.8379 19.0093 20.8379 18.0326L21.5128 18.1626H16.5697V15.9519H23.3601V17.9719C23.3601 19.463 23.0508 20.7576 22.4322 21.8557C21.8192 22.948 20.9701 23.7918 19.8848 24.3871C18.805 24.9824 17.5679 25.28 16.1733 25.28C14.6099 25.28 13.2378 24.9101 12.0569 24.1704C10.8816 23.4306 9.96494 22.3816 9.30699 21.0234C8.64904 19.6595 8.32007 18.0412 8.32007 16.1687C8.32007 14.7527 8.51127 13.4812 8.89366 12.3542C9.27606 11.2272 9.8131 10.2707 10.5048 9.48472C11.2021 8.69294 12.0203 8.08898 12.9594 7.67286C13.9042 7.25096 14.9361 7.04001 16.0552 7.04001C16.9887 7.04001 17.8575 7.18161 18.6617 7.4648C19.4714 7.74799 20.1912 8.14967 20.8211 8.66982C21.4565 9.18997 21.9823 9.80837 22.3985 10.525C22.8146 11.2359 23.0958 12.0248 23.242 12.8917H20.568Z" fill="white"/>
</svg>
